<?xml version="1.0" encoding="UTF-8" standalone="no"?>
<!-- Created with Inkscape (http://www.inkscape.org/) -->

<svg
   width="275"
   height="300"
   viewBox="0 0 275 300"
   version="1.1"
   id="svg1"
   inkscape:version="1.3 (0e150ed6c4, 2023-07-21)"
   sodipodi:docname="short-journeysvg.svg"
   xmlns:inkscape="http://www.inkscape.org/namespaces/inkscape"
   xmlns:sodipodi="http://sodipodi.sourceforge.net/DTD/sodipodi-0.dtd"
   xmlns="http://www.w3.org/2000/svg"
   xmlns:svg="http://www.w3.org/2000/svg">
  <sodipodi:namedview
     id="namedview1"
     pagecolor="#505050"
     bordercolor="#ffffff"
     borderopacity="1"
     inkscape:showpageshadow="0"
     inkscape:pageopacity="0"
     inkscape:pagecheckerboard="1"
     inkscape:deskcolor="#505050"
     inkscape:document-units="px"
     inkscape:zoom="2.0899411"
     inkscape:cx="120.09908"
     inkscape:cy="180.38786"
     inkscape:window-width="1278"
     inkscape:window-height="1360"
     inkscape:window-x="-7"
     inkscape:window-y="0"
     inkscape:window-maximized="0"
     inkscape:current-layer="layer1"
     showguides="true">
    <sodipodi:guide
       position="276.08434,468.20458"
       orientation="0,-1"
       id="guide30"
       inkscape:locked="false" />
    <sodipodi:guide
       position="438.48623,1089.4143"
       orientation="0,-1"
       id="guide31"
       inkscape:locked="false" />
  </sodipodi:namedview>
  <defs
     id="defs1" />
  <g
     inkscape:label="Layer 1"
     inkscape:groupmode="layer"
     id="layer1"
     transform="translate(-81.426169,-106.51137)">
    <path
       sodipodi:type="star"
       style="fill:#ffffff;fill-opacity:0;fill-rule:nonzero;stroke:none;stroke-width:1;stroke-dasharray:2, 1;stroke-opacity:0.501976"
       id="path1"
       inkscape:flatsided="true"
       sodipodi:sides="6"
       sodipodi:cx="115.96419"
       sodipodi:cy="109.38107"
       sodipodi:r1="56.616554"
       sodipodi:r2="49.031372"
       sodipodi:arg1="-1.0471976"
       sodipodi:arg2="-0.52359878"
       inkscape:rounded="0"
       inkscape:randomized="0"
       d="m 144.27246,60.349697 28.30828,49.031373 -28.30827,49.03138 -56.616557,0 -28.30828,-49.03137 28.308275,-49.03138 z"
       inkscape:transform-center-y="-1.1993958e-06"
       transform="translate(-26.838875,3.797954)" />
    <path
       sodipodi:type="star"
       style="fill:#ffffff;fill-opacity:1;fill-rule:nonzero;stroke:none;stroke-width:1;stroke-dasharray:2, 1;stroke-opacity:0.501976"
       id="path2"
       inkscape:flatsided="true"
       sodipodi:sides="6"
       sodipodi:cx="68.034164"
       sodipodi:cy="58.36615"
       sodipodi:r1="72.445724"
       sodipodi:r2="62.73983"
       sodipodi:arg1="1.0471976"
       sodipodi:arg2="1.5707963"
       inkscape:rounded="0"
       inkscape:randomized="0"
       d="m 104.25702,121.10599 -72.445721,0 -36.2228591,-62.739844 36.2228651,-62.7398357 72.445725,3.6e-6 36.22286,62.7398391 z"
       transform="matrix(0.34508593,0,0,0.39847089,195.44854,108.25416)" />
    <path
       sodipodi:type="star"
       style="fill:#ffffff;fill-opacity:1;fill-rule:nonzero;stroke:none;stroke-width:0.998853;stroke-dasharray:1.99771, 0.998853;stroke-dashoffset:0;stroke-opacity:0.501976"
       id="path3"
       inkscape:flatsided="true"
       sodipodi:sides="6"
       sodipodi:cx="86.059448"
       sodipodi:cy="24.143456"
       sodipodi:r1="72.445724"
       sodipodi:r2="62.73983"
       sodipodi:arg1="1.0471976"
       sodipodi:arg2="1.5707963"
       inkscape:rounded="0"
       inkscape:randomized="0"
       d="m 122.28231,86.883295 -72.445727,-3e-6 -36.222859,-62.73984 36.222865,-62.739836 72.445721,3e-6 36.22286,62.73984 z"
       transform="matrix(0.34508593,0,0,0.39847089,189.22827,171.89091)" />
    <path
       sodipodi:type="star"
       style="fill:#ffffff;fill-opacity:1;fill-rule:nonzero;stroke:none;stroke-width:1;stroke-dasharray:2, 1;stroke-opacity:0.501976"
       id="path2-2"
       inkscape:flatsided="true"
       sodipodi:sides="6"
       sodipodi:cx="68.034164"
       sodipodi:cy="58.36615"
       sodipodi:r1="72.445724"
       sodipodi:r2="62.73983"
       sodipodi:arg1="1.0471976"
       sodipodi:arg2="1.5707963"
       inkscape:rounded="0"
       inkscape:randomized="0"
       d="m 104.25702,121.10599 -72.445721,0 -36.2228591,-62.739844 36.2228651,-62.7398357 72.445725,3.6e-6 36.22286,62.7398391 z"
       transform="matrix(0.34508593,0,0,0.39847089,195.44854,208.25416)" />
    <path
       sodipodi:type="star"
       style="fill:#ffffff;fill-opacity:1;fill-rule:nonzero;stroke:none;stroke-width:0.998853;stroke-dasharray:1.99771, 0.998853;stroke-dashoffset:0;stroke-opacity:0.501976"
       id="path3-8"
       inkscape:flatsided="true"
       sodipodi:sides="6"
       sodipodi:cx="86.059448"
       sodipodi:cy="24.143456"
       sodipodi:r1="72.445724"
       sodipodi:r2="62.73983"
       sodipodi:arg1="1.0471976"
       sodipodi:arg2="1.5707963"
       inkscape:rounded="0"
       inkscape:randomized="0"
       d="m 122.28231,86.883295 -72.445727,-3e-6 -36.222859,-62.73984 36.222865,-62.739836 72.445721,3e-6 36.22286,62.73984 z"
       transform="matrix(0.34508593,0,0,0.39847089,189.22827,271.89091)" />
    <path
       sodipodi:type="star"
       style="fill:#ffffff;fill-opacity:1;fill-rule:nonzero;stroke:none;stroke-width:1;stroke-dasharray:2, 1;stroke-opacity:0.501976"
       id="path2-2-4"
       inkscape:flatsided="true"
       sodipodi:sides="6"
       sodipodi:cx="68.034164"
       sodipodi:cy="58.36615"
       sodipodi:r1="72.445724"
       sodipodi:r2="62.73983"
       sodipodi:arg1="1.0471976"
       sodipodi:arg2="1.5707963"
       inkscape:rounded="0"
       inkscape:randomized="0"
       d="m 104.25702,121.10599 -72.445721,0 -36.2228591,-62.739844 36.2228651,-62.7398357 72.445725,3.6e-6 36.22286,62.7398391 z"
       transform="matrix(0.34508593,0,0,0.39847089,195.44854,308.25416)" />
    <path
       sodipodi:type="star"
       style="fill:#ffffff;fill-opacity:1;fill-rule:nonzero;stroke:none;stroke-width:0.998853;stroke-dasharray:1.99771, 0.998853;stroke-dashoffset:0;stroke-opacity:0.501976"
       id="path3-8-9"
       inkscape:flatsided="true"
       sodipodi:sides="6"
       sodipodi:cx="86.059448"
       sodipodi:cy="24.143456"
       sodipodi:r1="72.445724"
       sodipodi:r2="62.73983"
       sodipodi:arg1="1.0471976"
       sodipodi:arg2="1.5707963"
       inkscape:rounded="0"
       inkscape:randomized="0"
       d="m 122.28231,86.883295 -72.445727,-3e-6 -36.222859,-62.73984 36.222865,-62.739836 72.445721,3e-6 36.22286,62.73984 z"
       transform="matrix(0.34508593,0,0,0.39847089,189.22827,371.89091)" />
    <path
       sodipodi:type="star"
       style="fill:#ffffff;fill-opacity:1;fill-rule:nonzero;stroke:none;stroke-width:1;stroke-dasharray:2, 1;stroke-opacity:0.501976"
       id="path4"
       inkscape:flatsided="true"
       sodipodi:sides="6"
       sodipodi:cx="86.059448"
       sodipodi:cy="24.143456"
       sodipodi:r1="72.445724"
       sodipodi:r2="62.73983"
       sodipodi:arg1="1.0471976"
       sodipodi:arg2="1.5707963"
       inkscape:rounded="0"
       inkscape:randomized="0"
       d="m 122.28231,86.883295 -72.445727,-3e-6 -36.222859,-62.73984 36.222865,-62.739836 72.445721,3e-6 36.22286,62.73984 z"
       transform="matrix(0.34508593,0,0,0.39847089,151.72827,146.89091)" />
    <path
       sodipodi:type="star"
       style="fill:#ffffff;fill-opacity:1;fill-rule:nonzero;stroke:none;stroke-width:1;stroke-dasharray:2, 1;stroke-opacity:0.501976"
       id="path5"
       inkscape:flatsided="true"
       sodipodi:sides="6"
       sodipodi:cx="86.059448"
       sodipodi:cy="24.143456"
       sodipodi:r1="72.445724"
       sodipodi:r2="62.73983"
       sodipodi:arg1="1.0471976"
       sodipodi:arg2="1.5707963"
       inkscape:rounded="0"
       inkscape:randomized="0"
       d="m 122.28231,86.883295 -72.445727,-3e-6 -36.222859,-62.73984 36.222865,-62.739836 72.445721,3e-6 36.22286,62.73984 z"
       transform="matrix(0.34508593,0,0,0.39847089,151.72827,196.89091)" />
    <path
       sodipodi:type="star"
       style="fill:#ffffff;fill-opacity:1;fill-rule:nonzero;stroke:none;stroke-width:1;stroke-dasharray:2, 1;stroke-opacity:0.501976"
       id="path6"
       inkscape:flatsided="true"
       sodipodi:sides="6"
       sodipodi:cx="86.059448"
       sodipodi:cy="24.143456"
       sodipodi:r1="72.445724"
       sodipodi:r2="62.73983"
       sodipodi:arg1="1.0471976"
       sodipodi:arg2="1.5707963"
       inkscape:rounded="0"
       inkscape:randomized="0"
       d="m 122.28231,86.883295 -72.445727,-3e-6 -36.222859,-62.73984 36.222865,-62.739836 72.445721,3e-6 36.22286,62.73984 z"
       transform="matrix(0.34508593,0,0,0.39847089,151.72827,246.89091)" />
    <path
       sodipodi:type="star"
       style="fill:#ffffff;fill-opacity:1;fill-rule:nonzero;stroke:none;stroke-width:1;stroke-dasharray:2, 1;stroke-opacity:0.501976"
       id="path7"
       inkscape:flatsided="true"
       sodipodi:sides="6"
       sodipodi:cx="86.059448"
       sodipodi:cy="24.143456"
       sodipodi:r1="72.445724"
       sodipodi:r2="62.73983"
       sodipodi:arg1="1.0471976"
       sodipodi:arg2="1.5707963"
       inkscape:rounded="0"
       inkscape:randomized="0"
       d="m 122.28231,86.883295 -72.445727,-3e-6 -36.222859,-62.73984 36.222865,-62.739836 72.445721,3e-6 36.22286,62.73984 z"
       transform="matrix(0.34508593,0,0,0.39847089,151.72827,296.89091)" />
    <path
       sodipodi:type="star"
       style="fill:#ffffff;fill-opacity:1;fill-rule:nonzero;stroke:none;stroke-width:0.998853;stroke-dasharray:1.99771, 0.998853;stroke-dashoffset:0;stroke-opacity:0.501976"
       id="path8"
       inkscape:flatsided="true"
       sodipodi:sides="6"
       sodipodi:cx="86.059448"
       sodipodi:cy="24.143456"
       sodipodi:r1="72.445724"
       sodipodi:r2="62.73983"
       sodipodi:arg1="1.0471976"
       sodipodi:arg2="1.5707963"
       inkscape:rounded="0"
       inkscape:randomized="0"
       d="m 122.28231,86.883295 -72.445727,-3e-6 -36.222859,-62.73984 36.222865,-62.739836 72.445721,3e-6 36.22286,62.73984 z"
       transform="matrix(0.34508593,0,0,0.39847089,114.22827,171.89091)" />
    <path
       sodipodi:type="star"
       style="fill:#ffffff;fill-opacity:1;fill-rule:nonzero;stroke:none;stroke-width:1;stroke-dasharray:2, 1;stroke-opacity:0.501976"
       id="path9"
       inkscape:flatsided="true"
       sodipodi:sides="6"
       sodipodi:cx="68.034164"
       sodipodi:cy="58.36615"
       sodipodi:r1="72.445724"
       sodipodi:r2="62.73983"
       sodipodi:arg1="1.0471976"
       sodipodi:arg2="1.5707963"
       inkscape:rounded="0"
       inkscape:randomized="0"
       d="m 104.25702,121.10599 -72.445721,0 -36.2228591,-62.739844 36.2228651,-62.7398357 72.445725,3.6e-6 36.22286,62.7398391 z"
       transform="matrix(0.34508593,0,0,0.39847089,120.44854,208.25416)" />
    <path
       sodipodi:type="star"
       style="fill:#ffffff;fill-opacity:1;fill-rule:nonzero;stroke:none;stroke-width:1;stroke-dasharray:2, 1;stroke-opacity:0.501976"
       id="path10"
       inkscape:flatsided="true"
       sodipodi:sides="6"
       sodipodi:cx="86.059448"
       sodipodi:cy="24.143456"
       sodipodi:r1="72.445724"
       sodipodi:r2="62.73983"
       sodipodi:arg1="1.0471976"
       sodipodi:arg2="1.5707963"
       inkscape:rounded="0"
       inkscape:randomized="0"
       d="m 122.28231,86.883295 -72.445727,-3e-6 -36.222859,-62.73984 36.222865,-62.739836 72.445721,3e-6 36.22286,62.73984 z"
       transform="matrix(0.34508593,0,0,0.39847089,151.72827,346.89091)" />
    <path
       sodipodi:type="star"
       style="fill:#ffffff;fill-opacity:1;fill-rule:nonzero;stroke:none;stroke-width:0.998853;stroke-dasharray:1.99771, 0.998853;stroke-dashoffset:0;stroke-opacity:0.501976"
       id="path16"
       inkscape:flatsided="true"
       sodipodi:sides="6"
       sodipodi:cx="86.059448"
       sodipodi:cy="24.143456"
       sodipodi:r1="72.445724"
       sodipodi:r2="62.73983"
       sodipodi:arg1="1.0471976"
       sodipodi:arg2="1.5707963"
       inkscape:rounded="0"
       inkscape:randomized="0"
       d="m 122.28231,86.883295 -72.445727,-3e-6 -36.222859,-62.73984 36.222865,-62.739836 72.445721,3e-6 36.22286,62.73984 z"
       transform="matrix(0.34508593,0,0,0.39847089,114.22827,271.89091)" />
    <path
       sodipodi:type="star"
       style="fill:#ffffff;fill-opacity:1;fill-rule:nonzero;stroke:none;stroke-width:1;stroke-dasharray:2, 1;stroke-opacity:0.501976"
       id="path17"
       inkscape:flatsided="true"
       sodipodi:sides="6"
       sodipodi:cx="68.034164"
       sodipodi:cy="58.36615"
       sodipodi:r1="72.445724"
       sodipodi:r2="62.73983"
       sodipodi:arg1="1.0471976"
       sodipodi:arg2="1.5707963"
       inkscape:rounded="0"
       inkscape:randomized="0"
       d="m 104.25702,121.10599 -72.445721,0 -36.2228591,-62.739844 36.2228651,-62.7398357 72.445725,3.6e-6 36.22286,62.7398391 z"
       transform="matrix(0.34508593,0,0,0.39847089,120.44854,308.25416)" />
    <path
       sodipodi:type="star"
       style="fill:#ffffff;fill-opacity:1;fill-rule:nonzero;stroke:none;stroke-width:0.998853;stroke-dasharray:1.99771, 0.998853;stroke-dashoffset:0;stroke-opacity:0.501976"
       id="path18"
       inkscape:flatsided="true"
       sodipodi:sides="6"
       sodipodi:cx="86.059448"
       sodipodi:cy="24.143456"
       sodipodi:r1="72.445724"
       sodipodi:r2="62.73983"
       sodipodi:arg1="1.0471976"
       sodipodi:arg2="1.5707963"
       inkscape:rounded="0"
       inkscape:randomized="0"
       d="m 122.28231,86.883295 -72.445727,-3e-6 -36.222859,-62.73984 36.222865,-62.739836 72.445721,3e-6 36.22286,62.73984 z"
       transform="matrix(0.34508593,0,0,0.39847089,76.728266,196.89091)" />
    <path
       sodipodi:type="star"
       style="fill:#ffffff;fill-opacity:1;fill-rule:nonzero;stroke:none;stroke-width:1;stroke-dasharray:2, 1;stroke-opacity:0.501976"
       id="path19"
       inkscape:flatsided="true"
       sodipodi:sides="6"
       sodipodi:cx="68.034164"
       sodipodi:cy="58.36615"
       sodipodi:r1="72.445724"
       sodipodi:r2="62.73983"
       sodipodi:arg1="1.0471976"
       sodipodi:arg2="1.5707963"
       inkscape:rounded="0"
       inkscape:randomized="0"
       d="m 104.25702,121.10599 -72.445721,0 -36.2228591,-62.739844 36.2228651,-62.7398357 72.445725,3.6e-6 36.22286,62.7398391 z"
       transform="matrix(0.34508593,0,0,0.39847089,82.948536,233.25416)" />
    <path
       sodipodi:type="star"
       style="fill:#ffffff;fill-opacity:1;fill-rule:nonzero;stroke:none;stroke-width:1;stroke-dasharray:2, 1;stroke-opacity:0.501976"
       id="path20"
       inkscape:flatsided="true"
       sodipodi:sides="6"
       sodipodi:cx="86.059448"
       sodipodi:cy="24.143456"
       sodipodi:r1="72.445724"
       sodipodi:r2="62.73983"
       sodipodi:arg1="1.0471976"
       sodipodi:arg2="1.5707963"
       inkscape:rounded="0"
       inkscape:randomized="0"
       d="m 122.28231,86.883295 -72.445727,-3e-6 -36.222859,-62.73984 36.222865,-62.739836 72.445721,3e-6 36.22286,62.73984 z"
       transform="matrix(0.34508593,0,0,0.39847089,226.72827,146.89091)" />
    <path
       sodipodi:type="star"
       style="fill:#ffffff;fill-opacity:1;fill-rule:nonzero;stroke:none;stroke-width:1;stroke-dasharray:2, 1;stroke-opacity:0.501976"
       id="path21"
       inkscape:flatsided="true"
       sodipodi:sides="6"
       sodipodi:cx="86.059448"
       sodipodi:cy="24.143456"
       sodipodi:r1="72.445724"
       sodipodi:r2="62.73983"
       sodipodi:arg1="1.0471976"
       sodipodi:arg2="1.5707963"
       inkscape:rounded="0"
       inkscape:randomized="0"
       d="m 122.28231,86.883295 -72.445727,-3e-6 -36.222859,-62.73984 36.222865,-62.739836 72.445721,3e-6 36.22286,62.73984 z"
       transform="matrix(0.34508593,0,0,0.39847089,226.72827,196.89091)" />
    <path
       sodipodi:type="star"
       style="fill:#ffffff;fill-opacity:1;fill-rule:nonzero;stroke:none;stroke-width:1;stroke-dasharray:2, 1;stroke-opacity:0.501976"
       id="path22"
       inkscape:flatsided="true"
       sodipodi:sides="6"
       sodipodi:cx="86.059448"
       sodipodi:cy="24.143456"
       sodipodi:r1="72.445724"
       sodipodi:r2="62.73983"
       sodipodi:arg1="1.0471976"
       sodipodi:arg2="1.5707963"
       inkscape:rounded="0"
       inkscape:randomized="0"
       d="m 122.28231,86.883295 -72.445727,-3e-6 -36.222859,-62.73984 36.222865,-62.739836 72.445721,3e-6 36.22286,62.73984 z"
       transform="matrix(0.34508593,0,0,0.39847089,226.72827,246.89091)" />
    <path
       sodipodi:type="star"
       style="fill:#ffffff;fill-opacity:1;fill-rule:nonzero;stroke:none;stroke-width:1;stroke-dasharray:2, 1;stroke-opacity:0.501976"
       id="path23"
       inkscape:flatsided="true"
       sodipodi:sides="6"
       sodipodi:cx="86.059448"
       sodipodi:cy="24.143456"
       sodipodi:r1="72.445724"
       sodipodi:r2="62.73983"
       sodipodi:arg1="1.0471976"
       sodipodi:arg2="1.5707963"
       inkscape:rounded="0"
       inkscape:randomized="0"
       d="m 122.28231,86.883295 -72.445727,-3e-6 -36.222859,-62.73984 36.222865,-62.739836 72.445721,3e-6 36.22286,62.73984 z"
       transform="matrix(0.34508593,0,0,0.39847089,226.72827,296.89091)" />
    <path
       sodipodi:type="star"
       style="fill:#ffffff;fill-opacity:1;fill-rule:nonzero;stroke:none;stroke-width:1;stroke-dasharray:2, 1;stroke-opacity:0.501976"
       id="path24"
       inkscape:flatsided="true"
       sodipodi:sides="6"
       sodipodi:cx="86.059448"
       sodipodi:cy="24.143456"
       sodipodi:r1="72.445724"
       sodipodi:r2="62.73983"
       sodipodi:arg1="1.0471976"
       sodipodi:arg2="1.5707963"
       inkscape:rounded="0"
       inkscape:randomized="0"
       d="m 122.28231,86.883295 -72.445727,-3e-6 -36.222859,-62.73984 36.222865,-62.739836 72.445721,3e-6 36.22286,62.73984 z"
       transform="matrix(0.34508593,0,0,0.39847089,226.72827,346.89091)" />
    <path
       sodipodi:type="star"
       style="fill:#ffffff;fill-opacity:1;fill-rule:nonzero;stroke:none;stroke-width:0.998853;stroke-dasharray:1.99771, 0.998853;stroke-dashoffset:0;stroke-opacity:0.501976"
       id="path25"
       inkscape:flatsided="true"
       sodipodi:sides="6"
       sodipodi:cx="86.059448"
       sodipodi:cy="24.143456"
       sodipodi:r1="72.445724"
       sodipodi:r2="62.73983"
       sodipodi:arg1="1.0471976"
       sodipodi:arg2="1.5707963"
       inkscape:rounded="0"
       inkscape:randomized="0"
       d="m 122.28231,86.883295 -72.445727,-3e-6 -36.222859,-62.73984 36.222865,-62.739836 72.445721,3e-6 36.22286,62.73984 z"
       transform="matrix(0.34508593,0,0,0.39847089,264.22827,171.89091)" />
    <path
       sodipodi:type="star"
       style="fill:#ffffff;fill-opacity:1;fill-rule:nonzero;stroke:none;stroke-width:1;stroke-dasharray:2, 1;stroke-opacity:0.501976"
       id="path26"
       inkscape:flatsided="true"
       sodipodi:sides="6"
       sodipodi:cx="68.034164"
       sodipodi:cy="58.36615"
       sodipodi:r1="72.445724"
       sodipodi:r2="62.73983"
       sodipodi:arg1="1.0471976"
       sodipodi:arg2="1.5707963"
       inkscape:rounded="0"
       inkscape:randomized="0"
       d="m 104.25702,121.10599 -72.445721,0 -36.2228591,-62.739844 36.2228651,-62.7398357 72.445725,3.6e-6 36.22286,62.7398391 z"
       transform="matrix(0.34508593,0,0,0.39847089,270.44854,208.25416)" />
    <path
       sodipodi:type="star"
       style="fill:#ffffff;fill-opacity:1;fill-rule:nonzero;stroke:none;stroke-width:0.998853;stroke-dasharray:1.99771, 0.998853;stroke-dashoffset:0;stroke-opacity:0.501976"
       id="path27"
       inkscape:flatsided="true"
       sodipodi:sides="6"
       sodipodi:cx="86.059448"
       sodipodi:cy="24.143456"
       sodipodi:r1="72.445724"
       sodipodi:r2="62.73983"
       sodipodi:arg1="1.0471976"
       sodipodi:arg2="1.5707963"
       inkscape:rounded="0"
       inkscape:randomized="0"
       d="m 122.28231,86.883295 -72.445727,-3e-6 -36.222859,-62.73984 36.222865,-62.739836 72.445721,3e-6 36.22286,62.73984 z"
       transform="matrix(0.34508593,0,0,0.39847089,264.22827,271.89091)" />
    <path
       sodipodi:type="star"
       style="fill:#ffffff;fill-opacity:1;fill-rule:nonzero;stroke:none;stroke-width:1;stroke-dasharray:2, 1;stroke-opacity:0.501976"
       id="path28"
       inkscape:flatsided="true"
       sodipodi:sides="6"
       sodipodi:cx="68.034164"
       sodipodi:cy="58.36615"
       sodipodi:r1="72.445724"
       sodipodi:r2="62.73983"
       sodipodi:arg1="1.0471976"
       sodipodi:arg2="1.5707963"
       inkscape:rounded="0"
       inkscape:randomized="0"
       d="m 104.25702,121.10599 -72.445721,0 -36.2228591,-62.739844 36.2228651,-62.7398357 72.445725,3.6e-6 36.22286,62.7398391 z"
       transform="matrix(0.34508593,0,0,0.39847089,270.44854,308.25416)" />
    <path
       sodipodi:type="star"
       style="fill:#ffffff;fill-opacity:1;fill-rule:nonzero;stroke:none;stroke-width:0.998853;stroke-dasharray:1.99771, 0.998853;stroke-dashoffset:0;stroke-opacity:0.501976"
       id="path29"
       inkscape:flatsided="true"
       sodipodi:sides="6"
       sodipodi:cx="86.059448"
       sodipodi:cy="24.143456"
       sodipodi:r1="72.445724"
       sodipodi:r2="62.73983"
       sodipodi:arg1="1.0471976"
       sodipodi:arg2="1.5707963"
       inkscape:rounded="0"
       inkscape:randomized="0"
       d="m 122.28231,86.883295 -72.445727,-3e-6 -36.222859,-62.73984 36.222865,-62.739836 72.445721,3e-6 36.22286,62.73984 z"
       transform="matrix(0.34508593,0,0,0.39847089,301.72827,196.89091)" />
    <path
       sodipodi:type="star"
       style="fill:#ffffff;fill-opacity:1;fill-rule:nonzero;stroke:none;stroke-width:1;stroke-dasharray:2, 1;stroke-opacity:0.501976"
       id="path30"
       inkscape:flatsided="true"
       sodipodi:sides="6"
       sodipodi:cx="68.034164"
       sodipodi:cy="58.36615"
       sodipodi:r1="72.445724"
       sodipodi:r2="62.73983"
       sodipodi:arg1="1.0471976"
       sodipodi:arg2="1.5707963"
       inkscape:rounded="0"
       inkscape:randomized="0"
       d="m 104.25702,121.10599 -72.445721,0 -36.2228591,-62.739844 36.2228651,-62.7398357 72.445725,3.6e-6 36.22286,62.7398391 z"
       transform="matrix(0.34508593,0,0,0.39847089,307.94854,233.25416)" />
  </g>
</svg>
